<svg version="1.1" id="Layer_1" xmlns="http://www.w3.org/2000/svg" xmlns:xlink="http://www.w3.org/1999/xlink" x="0px" y="0px"
	 width="100%" viewBox="0 0 512 512" enable-background="new 0 0 512 512" xml:space="preserve">
<path fill="#000000" opacity="1.000000" stroke="none" 
	d="
M297.000000,1.000002 
	C368.984650,1.000000 440.969330,1.000000 512.976990,1.000000 
	C512.976990,171.614944 512.976990,342.229889 512.976990,512.922424 
	C342.421478,512.922424 171.842880,512.922424 1.132151,512.922424 
	C1.132151,342.333405 1.132151,171.666718 1.129306,1.000017 
	C89.774300,1.000000 178.422134,1.000000 267.682312,1.366015 
	C267.326904,2.247222 266.408752,2.908386 265.384186,3.256051 
	C244.842438,10.226535 230.141907,31.164886 230.640686,52.878281 
	C228.805984,53.293175 227.360016,53.619877 225.484955,53.976582 
	C222.474304,53.671078 219.897324,53.294167 217.310287,53.008202 
	C210.810593,52.289742 204.291855,51.725430 197.807068,50.894161 
	C185.678146,49.339390 173.575424,47.580502 161.447296,46.019299 
	C152.537994,44.872440 143.593124,44.000034 134.686905,42.831470 
	C125.814186,41.667301 116.977257,40.232803 108.111183,39.014683 
	C98.088455,37.637650 88.048012,36.390079 78.020401,35.047867 
	C69.540039,33.912746 60.805328,37.614521 58.069843,47.086082 
	C56.641087,52.033108 56.474831,57.347832 55.773563,62.501270 
	C54.170811,74.279518 52.532009,86.053307 51.018303,97.843086 
	C49.831764,107.084633 48.877758,116.355965 47.699757,125.598686 
	C46.196697,137.391830 44.505344,149.161102 43.021576,160.956558 
	C41.878372,170.044693 41.024956,179.169388 39.872017,188.256165 
	C38.334480,200.374130 36.576378,212.464020 35.017971,224.579453 
	C33.870773,233.498016 32.966644,242.447830 31.819466,251.366394 
	C30.280937,263.327393 28.556602,275.264496 27.017874,287.225464 
	C25.849796,296.305206 24.911339,305.414398 23.752563,314.495453 
	C22.577236,323.706238 21.185474,332.889465 20.020327,342.101440 
	C18.871384,351.185364 17.960480,360.299347 16.811125,369.383209 
	C15.624838,378.758972 14.273894,388.113892 13.000862,397.478699 
	C11.726872,406.850586 10.395789,416.215332 9.206037,425.597931 
	C7.605940,438.216553 11.253417,446.590759 23.522667,448.796478 
	C38.920540,451.564697 54.556271,453.017578 70.095596,454.988831 
	C83.691681,456.713593 97.296410,458.370239 110.941376,460.479675 
	C112.562607,468.694885 113.785393,476.581116 115.813828,484.254364 
	C117.962784,492.383545 123.453835,496.826660 131.696487,495.816315 
	C146.058624,494.055908 160.313843,491.333862 174.553940,488.691895 
	C189.091400,485.994720 203.563507,482.941895 218.050537,479.977753 
	C224.382812,478.682159 230.681000,477.219940 237.421005,475.902405 
	C240.421860,476.314331 242.993317,476.682770 245.571533,476.995056 
	C251.892075,477.760620 258.224274,478.435394 264.536102,479.265808 
	C273.575653,480.455048 282.590393,481.836731 291.635864,482.976318 
	C300.874695,484.140289 310.152802,484.996063 319.386566,486.195709 
	C330.848969,487.684906 342.269897,489.494141 353.734100,490.968109 
	C363.781738,492.259949 373.849670,493.439453 383.936249,494.369171 
	C392.129028,495.124359 400.506561,489.529724 401.914124,480.796814 
	C403.931488,468.280731 405.371277,455.671570 407.456970,443.045502 
	C413.424225,441.906616 418.997223,440.849670 424.559204,439.737549 
	C445.739655,435.502747 466.871277,431.002350 488.115906,427.119812 
	C497.286469,425.443909 505.012543,418.937500 503.934753,408.907990 
	C503.292999,402.936096 502.089264,397.018036 500.991608,391.102966 
	C497.314514,371.287720 493.674988,351.464600 489.824310,331.682800 
	C486.009003,312.082642 481.880157,292.543640 478.027435,272.950592 
	C474.204254,253.507462 470.614105,234.018555 466.811462,214.571304 
	C462.604553,193.056549 458.290222,171.562729 453.987000,150.066925 
	C451.979828,140.040512 449.888611,130.030914 447.903625,119.582428 
	C448.538910,114.996078 448.792572,110.768509 449.733185,106.699753 
	C452.368774,95.299751 449.331421,87.177254 440.066650,81.535339 
	C440.010864,80.611511 440.081238,80.097130 439.988556,79.614029 
	C436.894226,63.488647 434.089508,47.299137 430.563538,31.268322 
	C428.412933,21.490782 421.519989,16.411783 412.222595,17.110897 
	C407.237000,17.485788 402.340485,19.011156 397.396667,19.981178 
	C375.068085,24.362246 352.736969,28.730394 330.252594,32.794388 
	C329.831696,31.558477 329.704590,30.560833 329.277222,29.714880 
	C323.060455,17.408766 313.745209,8.539582 300.644562,3.789199 
	C299.272949,3.291836 298.207489,1.950021 297.000000,1.000002 
z"/>
<path fill="#56767F" opacity="1.000000" stroke="none" 
	d="
M231.029434,52.790092 
	C230.141907,31.164886 244.842438,10.226535 265.384186,3.256051 
	C266.408752,2.908386 267.326904,2.247222 268.147308,1.366015 
	C277.354218,1.000000 286.708466,1.000000 296.531342,1.000002 
	C298.207489,1.950021 299.272949,3.291836 300.644562,3.789199 
	C313.745209,8.539582 323.060455,17.408766 329.277222,29.714880 
	C329.704590,30.560833 329.831696,31.558477 330.304749,33.203175 
	C331.400818,37.627987 332.780182,41.296253 333.078888,45.050499 
	C333.710114,52.984386 333.776611,60.963207 334.004272,69.392532 
	C333.908325,92.527046 334.167084,115.197418 333.784271,137.856964 
	C333.323425,165.140579 313.504211,185.990250 286.200928,188.606430 
	C261.585968,190.965027 237.424088,173.263382 232.770218,147.933228 
	C230.718155,136.764206 231.558151,125.038872 231.374481,113.561478 
	C231.274155,107.292160 234.882874,103.396591 239.996780,103.436752 
	C245.090820,103.476761 248.361450,107.329391 248.453583,113.714882 
	C248.571381,121.879616 248.265213,130.057358 248.599884,138.210693 
	C249.379578,157.205719 263.617493,171.250839 282.198639,171.679886 
	C300.280548,172.097443 316.023224,157.898285 316.551453,139.021240 
	C317.231628,114.714539 316.637085,90.372162 316.672058,65.580292 
	C316.766602,60.681671 317.399414,56.137741 316.634735,51.842602 
	C315.721863,46.714863 313.612457,41.800140 311.988953,36.450420 
	C311.508179,35.433613 311.065765,34.755459 310.610535,34.086040 
	C299.524994,17.785082 279.897858,13.989343 263.477631,24.810118 
	C254.728561,30.575661 250.908508,39.121864 248.805496,49.206093 
	C242.688736,50.578236 236.859085,51.684162 231.029434,52.790092 
z"/>
<path fill="#F0C419" opacity="1.000000" stroke="none" 
	d="
M316.591553,66.045151 
	C316.637085,90.372162 317.231628,114.714539 316.551453,139.021240 
	C316.023224,157.898285 300.280548,172.097443 282.198639,171.679886 
	C263.617493,171.250839 249.379578,157.205719 248.599884,138.210693 
	C248.265213,130.057358 248.571381,121.879616 248.453583,113.714882 
	C248.361450,107.329391 245.090820,103.476761 239.996780,103.436752 
	C234.882874,103.396591 231.274155,107.292160 231.374481,113.561478 
	C231.558151,125.038872 230.718155,136.764206 232.770218,147.933228 
	C237.424088,173.263382 261.585968,190.965027 286.200928,188.606430 
	C313.504211,185.990250 333.323425,165.140579 333.784271,137.856964 
	C334.167084,115.197418 333.908325,92.527046 334.451477,69.404335 
	C336.962494,69.004082 338.977692,68.890526 340.945831,69.143234 
	C374.006317,73.388199 407.060913,77.678864 440.116821,81.959373 
	C449.331421,87.177254 452.368774,95.299751 449.733185,106.699753 
	C448.792572,110.768509 448.538910,114.996078 447.727417,119.928955 
	C445.012970,139.313614 442.451202,157.908890 440.093506,176.529984 
	C436.253693,206.857193 432.585266,237.206070 428.771820,267.536682 
	C425.890961,290.449738 422.910278,313.350281 419.948975,336.253143 
	C417.051514,358.661865 414.008118,381.052429 411.250427,403.478210 
	C409.629608,416.658722 408.440796,429.892395 407.057678,443.102142 
	C405.371277,455.671570 403.931488,468.280731 401.914124,480.796814 
	C400.506561,489.529724 392.129028,495.124359 383.936249,494.369171 
	C373.849670,493.439453 363.781738,492.259949 353.734100,490.968109 
	C342.269897,489.494141 330.848969,487.684906 319.386566,486.195709 
	C310.152802,484.996063 300.874695,484.140289 291.635864,482.976318 
	C282.590393,481.836731 273.575653,480.455048 264.536102,479.265808 
	C258.224274,478.435394 251.892075,477.760620 245.571533,476.995056 
	C242.993317,476.682770 240.421860,476.314331 237.073578,475.724487 
	C227.755768,474.326324 219.217880,473.126770 210.666397,472.033478 
	C190.757965,469.488312 170.852127,466.918732 150.927414,464.506165 
	C137.599884,462.892334 124.241753,461.531189 110.897316,460.056976 
	C97.296410,458.370239 83.691681,456.713593 70.095596,454.988831 
	C54.556271,453.017578 38.920540,451.564697 23.522667,448.796478 
	C11.253417,446.590759 7.605940,438.216553 9.206037,425.597931 
	C10.395789,416.215332 11.726872,406.850586 13.000862,397.478699 
	C14.273894,388.113892 15.624838,378.758972 16.811125,369.383209 
	C17.960480,360.299347 18.871384,351.185364 20.020327,342.101440 
	C21.185474,332.889465 22.577236,323.706238 23.752563,314.495453 
	C24.911339,305.414398 25.849796,296.305206 27.017874,287.225464 
	C28.556602,275.264496 30.280937,263.327393 31.819466,251.366394 
	C32.966644,242.447830 33.870773,233.498016 35.017971,224.579453 
	C36.576378,212.464020 38.334480,200.374130 39.872017,188.256165 
	C41.024956,179.169388 41.878372,170.044693 43.021576,160.956558 
	C44.505344,149.161102 46.196697,137.391830 47.699757,125.598686 
	C48.877758,116.355965 49.831764,107.084633 51.018303,97.843086 
	C52.532009,86.053307 54.170811,74.279518 55.773563,62.501270 
	C56.474831,57.347832 56.641087,52.033108 58.069843,47.086082 
	C60.805328,37.614521 69.540039,33.912746 78.020401,35.047867 
	C88.048012,36.390079 98.088455,37.637650 108.111183,39.014683 
	C116.977257,40.232803 125.814186,41.667301 134.686905,42.831470 
	C143.593124,44.000034 152.537994,44.872440 161.447296,46.019299 
	C173.575424,47.580502 185.678146,49.339390 197.807068,50.894161 
	C204.291855,51.725430 210.810593,52.289742 217.310287,53.008202 
	C219.897324,53.294167 222.474304,53.671078 225.823090,54.190285 
	C256.590729,58.264374 286.591156,62.154762 316.591553,66.045151 
z"/>
<path fill="#F29C1F" opacity="1.000000" stroke="none" 
	d="
M407.456970,443.045502 
	C408.440796,429.892395 409.629608,416.658722 411.250427,403.478210 
	C414.008118,381.052429 417.051514,358.661865 419.948975,336.253143 
	C422.910278,313.350281 425.890961,290.449738 428.771820,267.536682 
	C432.585266,237.206070 436.253693,206.857193 440.093506,176.529984 
	C442.451202,157.908890 445.012970,139.313614 447.659302,120.360214 
	C449.888611,130.030914 451.979828,140.040512 453.987000,150.066925 
	C458.290222,171.562729 462.604553,193.056549 466.811462,214.571304 
	C470.614105,234.018555 474.204254,253.507462 478.027435,272.950592 
	C481.880157,292.543640 486.009003,312.082642 489.824310,331.682800 
	C493.674988,351.464600 497.314514,371.287720 500.991608,391.102966 
	C502.089264,397.018036 503.292999,402.936096 503.934753,408.907990 
	C505.012543,418.937500 497.286469,425.443909 488.115906,427.119812 
	C466.871277,431.002350 445.739655,435.502747 424.559204,439.737549 
	C418.997223,440.849670 413.424225,441.906616 407.456970,443.045502 
z"/>
<path fill="#F29C1F" opacity="1.000000" stroke="none" 
	d="
M440.066650,81.535339 
	C407.060913,77.678864 374.006317,73.388199 340.945831,69.143234 
	C338.977692,68.890526 336.962494,69.004082 334.521973,68.935402 
	C333.776611,60.963207 333.710114,52.984386 333.078888,45.050499 
	C332.780182,41.296253 331.400818,37.627987 330.458923,33.511982 
	C352.736969,28.730394 375.068085,24.362246 397.396667,19.981178 
	C402.340485,19.011156 407.237000,17.485788 412.222595,17.110897 
	C421.519989,16.411783 428.412933,21.490782 430.563538,31.268322 
	C434.089508,47.299137 436.894226,63.488647 439.988556,79.614029 
	C440.081238,80.097130 440.010864,80.611511 440.066650,81.535339 
z"/>
<path fill="#F29C1F" opacity="1.000000" stroke="none" 
	d="
M110.941376,460.479675 
	C124.241753,461.531189 137.599884,462.892334 150.927414,464.506165 
	C170.852127,466.918732 190.757965,469.488312 210.666397,472.033478 
	C219.217880,473.126770 227.755768,474.326324 236.647247,475.655457 
	C230.681000,477.219940 224.382812,478.682159 218.050537,479.977753 
	C203.563507,482.941895 189.091400,485.994720 174.553940,488.691895 
	C160.313843,491.333862 146.058624,494.055908 131.696487,495.816315 
	C123.453835,496.826660 117.962784,492.383545 115.813828,484.254364 
	C113.785393,476.581116 112.562607,468.694885 110.941376,460.479675 
z"/>
<path fill="#EF9D21" opacity="1.000000" stroke="none" 
	d="
M316.672089,65.580292 
	C286.591156,62.154762 256.590729,58.264374 226.252182,54.160278 
	C227.360016,53.619877 228.805984,53.293175 230.640686,52.878281 
	C236.859085,51.684162 242.688736,50.578236 249.204071,49.216812 
	C258.946259,47.131523 267.993591,45.254868 277.061523,43.483669 
	C288.706146,41.209179 300.367310,39.019413 312.021362,36.793144 
	C313.612457,41.800140 315.721863,46.714863 316.634735,51.842602 
	C317.399414,56.137741 316.766602,60.681671 316.672089,65.580292 
z"/>
<path fill="#000000" opacity="1.000000" stroke="none" 
	d="
M311.988953,36.450420 
	C300.367310,39.019413 288.706146,41.209179 277.061523,43.483669 
	C267.993591,45.254868 258.946259,47.131523 249.491180,48.950592 
	C250.908508,39.121864 254.728561,30.575661 263.477631,24.810118 
	C279.897858,13.989343 299.524994,17.785082 310.610535,34.086040 
	C311.065765,34.755459 311.508179,35.433613 311.988953,36.450420 
z"/>
</svg>